<svg width="24" height="24" viewBox="0 0 24 24" xmlns="http://www.w3.org/2000/svg">
  <!-- Computer emoji pixel art style -->
  <rect x="0" y="0" width="24" height="24" fill="transparent"/>
  
  <!-- Monitor screen -->
  <rect x="4" y="4" width="16" height="12" fill="#000000" stroke="#cccccc" stroke-width="2"/>
  <rect x="6" y="6" width="12" height="8" fill="#0066cc"/>
  
  <!-- Screen content -->
  <rect x="7" y="7" width="10" height="1" fill="#ffffff"/>
  <rect x="7" y="9" width="8" height="1" fill="#ffffff"/>
  <rect x="7" y="11" width="6" height="1" fill="#ffffff"/>
  <rect x="7" y="13" width="4" height="1" fill="#00ff00"/>
  
  <!-- Monitor stand -->
  <rect x="10" y="16" width="4" height="2" fill="#cccccc"/>
  <rect x="8" y="18" width="8" height="2" fill="#cccccc"/>
  
  <!-- Keyboard -->
  <rect x="6" y="20" width="12" height="3" fill="#dddddd" stroke="#aaaaaa" stroke-width="1"/>
  <rect x="7" y="21" width="1" height="1" fill="#ffffff"/>
  <rect x="9" y="21" width="1" height="1" fill="#ffffff"/>
  <rect x="11" y="21" width="1" height="1" fill="#ffffff"/>
  <rect x="13" y="21" width="1" height="1" fill="#ffffff"/>
  <rect x="15" y="21" width="1" height="1" fill="#ffffff"/>
  <rect x="17" y="21" width="1" height="1" fill="#ffffff"/>
  
  <!-- Power indicator -->
  <rect x="19" y="5" width="1" height="1" fill="#00ff00"/>
</svg>