<svg width="24" height="24" viewBox="0 0 24 24" xmlns="http://www.w3.org/2000/svg">
  <!-- Party emoji pixel art style -->
  <rect x="0" y="0" width="24" height="24" fill="transparent"/>
  
  <!-- Confetti pieces -->
  <rect x="2" y="3" width="2" height="2" fill="#ffff00"/>
  <rect x="6" y="1" width="2" height="2" fill="#ff0000"/>
  <rect x="10" y="2" width="2" height="2" fill="#00ff00"/>
  <rect x="14" y="1" width="2" height="2" fill="#0000ff"/>
  <rect x="18" y="3" width="2" height="2" fill="#ff00ff"/>
  <rect x="20" y="6" width="2" height="2" fill="#ffff00"/>
  
  <!-- More confetti -->
  <rect x="1" y="8" width="2" height="2" fill="#00ffff"/>
  <rect x="4" y="6" width="2" height="2" fill="#ff0000"/>
  <rect x="8" y="5" width="2" height="2" fill="#00ff00"/>
  <rect x="12" y="4" width="2" height="2" fill="#ffff00"/>
  <rect x="16" y="6" width="2" height="2" fill="#ff00ff"/>
  <rect x="21" y="9" width="2" height="2" fill="#0000ff"/>
  
  <!-- Bottom confetti -->
  <rect x="3" y="18" width="2" height="2" fill="#ff0000"/>
  <rect x="7" y="20" width="2" height="2" fill="#00ff00"/>
  <rect x="11" y="19" width="2" height="2" fill="#ffff00"/>
  <rect x="15" y="21" width="2" height="2" fill="#ff00ff"/>
  <rect x="19" y="18" width="2" height="2" fill="#00ffff"/>
  
  <!-- Central burst -->
  <rect x="10" y="10" width="4" height="4" fill="#ffffff"/>
  <rect x="8" y="11" width="2" height="2" fill="#ffff00"/>
  <rect x="14" y="11" width="2" height="2" fill="#ffff00"/>
  <rect x="11" y="8" width="2" height="2" fill="#ffff00"/>
  <rect x="11" y="14" width="2" height="2" fill="#ffff00"/>
</svg>